<?xml version="1.0" encoding="utf-8"?>
<!-- Generator: Adobe Illustrator 27.5.0, SVG Export Plug-In . SVG Version: 6.00 Build 0)  -->
<svg version="1.1" id="Calque_1" xmlns="http://www.w3.org/2000/svg" xmlns:xlink="http://www.w3.org/1999/xlink" x="0px" y="0px"
	 viewBox="0 0 841.9 595.3" style="enable-background:new 0 0 841.9 595.3;" xml:space="preserve">
<style type="text/css">
	.st0{fill:#FFFFFF;}
</style>
<g>
	<path class="st0" d="M15.7,412.5h-8v12.3H0v-38.8h16.4c8.7,0,15.2,5.2,15.2,13.2c0,5.4-3,9.6-7.6,11.7L34,424.8h-9.4L15.7,412.5z
		 M7.8,405.4h8.3c4.3,0,7.8-2.3,7.8-6c0-3.7-3.5-6-7.8-6H7.8V405.4z"/>
	<path class="st0" d="M68,393.3v8.9h18.5v7.2H68v8.3h20.7v7.2H60.2v-38.8h28.5v7.2H68z"/>
	<path class="st0" d="M154.8,386.1l-17.4,39h-7.1l-17.5-39h8.6l12.5,28.4l12.5-28.4H154.8z"/>
	<path class="st0" d="M188.8,393.3v8.9h18.5v7.2h-18.5v8.3h20.7v7.2h-28.5v-38.8h28.5v7.2H188.8z"/>
	<path class="st0" d="M264,417.1h-17.8l-3.2,7.8h-8.3l16.8-38.8h7.2l16.8,38.8h-8.3L264,417.1z M261.1,410.2l-6.1-14.8l-6.1,14.8
		H261.1z"/>
	<path class="st0" d="M329.9,417.7v7.2h-27.8v-38.8h7.8v31.6H329.9z"/>
	<path class="st0" d="M430.9,386.1l-15.4,26v12.8h-7.9v-12.8l-15.4-26h8.6l10.7,18.3l10.8-18.3H430.9z"/>
	<path class="st0" d="M493.1,405.5c0,11.2-9,20.1-20.2,20.1c-11.2,0-20.2-8.9-20.2-20.1c0-11.2,9-20.1,20.2-20.1
		C484.1,385.4,493.1,394.3,493.1,405.5z M485.2,405.5c0-7.1-5.2-12.8-12.3-12.8c-7.1,0-12.3,5.8-12.3,12.8c0,7.1,5.2,12.8,12.3,12.8
		C480,418.3,485.2,412.5,485.2,405.5z"/>
	<path class="st0" d="M555.3,407.4c0,11.4-7,18.1-17.4,18.1c-10.4,0-17.3-6.7-17.3-18.1v-21.3h7.8v21.3c0,6.6,3.8,10.9,9.6,10.9
		c5.8,0,9.6-4.3,9.6-10.9v-21.3h7.8V407.4z"/>
	<path class="st0" d="M600.1,412.5h-8v12.3h-7.8v-38.8h16.4c8.7,0,15.2,5.2,15.2,13.2c0,5.4-3,9.6-7.6,11.7l10.1,13.8H609
		L600.1,412.5z M592.1,405.4h8.3c4.3,0,7.8-2.3,7.8-6c0-3.7-3.5-6-7.8-6h-8.3V405.4z"/>
	<path class="st0" d="M674,397.9h-7.7c-0.5-3.6-2.8-5.8-7.7-5.8c-4.3,0-7.1,1.7-7.1,4.8c0,2.8,2.1,4,5.8,4.7l4.6,0.9
		c7.6,1.5,11.9,4.4,11.9,10.8c0,7.4-6,12.1-15.2,12.1c-9.6,0-16.2-5.1-16.8-13.5h7.7c0.6,4,4.2,6.6,9.6,6.6c4.3,0,6.7-1.5,6.7-4.3
		c0-1.7-1-3.5-5.1-4.2l-6.3-1.2c-7.7-1.5-11.1-5.4-11.1-11.3c0-7.4,5.9-12.2,14.7-12.2C664.5,385.4,673,388,674,397.9z"/>
	<path class="st0" d="M710.2,393.3v8.9h18.5v7.2h-18.5v8.3h20.7v7.2h-28.5v-38.8h28.5v7.2H710.2z"/>
	<path class="st0" d="M786.7,417.7v7.2H759v-38.8h7.8v31.6H786.7z"/>
	<path class="st0" d="M821.4,393.3v10h17.8v7.2h-17.8v14.4h-7.8v-38.8h28.1v7.2H821.4z"/>
</g>
<g>
	<polyline id="polyline3_00000122002054636371301270000002277510299392358797_" class="st0" points="457.9,324.7 566.6,324.7 
		566.6,311.4 476.6,311.4 476.6,268.9 544.2,268.9 544.2,255.6 476.6,255.6 476.6,216.4 566.6,216.4 566.6,203.3 457.9,203.3 
		457.9,324.7 	"/>
	<polyline id="polyline5_00000137848076672330013020000005775478952358055308_" class="st0" points="514.5,183.6 499.7,200.1 
		545.9,183.6 514.5,183.6 	"/>
	<polyline id="polyline7_00000003784940531317029730000007720587432255515548_" class="st0" points="749,311.4 749,203.3 732,203.3 
		732,324.7 841.8,324.7 841.8,311.4 749,311.4 	"/>
	<path id="path9_00000034789637501548845170000009640599425589126060_" class="st0" d="M637,203.3l-61.8,121.4h20.8l15.8-31.5H686
		l15.9,31.5h20.6l-61.7-121.4H637 M619.7,278.1l29.1-58l29.5,58H619.7z"/>
	<path id="path11_00000166652497907356771630000017910015468280057261_" class="st0" d="M399,273.9c27.9-7.5,30.5-28.1,30.4-35.6
		c-1.7-21.7-16.3-35.1-42.5-35.1h-76.6v121.5h17.5v-50.9h49.9l36.7,50.9h22C436.3,324.7,409.9,290.4,399,273.9 M384.5,259.3h-56.7
		v-41.8h58.7c13.5,0,21.2,6.3,23.9,14.3c1.8,5.5,0.6,12.7-2.3,17.6C403,257.7,393.8,259.3,384.5,259.3z"/>
	<path id="path13_00000067221798034641379370000008885763864086584236_" class="st0" d="M205.4,182.6c-49.2,0-82.8,34.7-82.8,76.8
		c0,44.3,37.1,75.6,82.8,75.6c45.8,0,82.8-30.8,82.8-75.6C288.2,217.4,254.2,182.6,205.4,182.6 M204.8,319.9
		c-34.1,0-62.2-27.4-62.2-60.4c0-32.9,26.7-61.7,63.5-61.7c35.8,0,62.2,28.7,62.2,61.7C268.3,292.5,238.9,319.9,204.8,319.9z"/>
	<polyline id="polyline15_00000003068865659966844910000012427427201253698726_" class="st0" points="78.6,246.2 91.1,246.2 
		114.1,203.3 95.7,203.3 78.6,246.2 	"/>
	<polyline id="polyline17_00000092434974777727807380000002806358719293230263_" class="st0" points="16.9,311.4 16.9,203.3 
		0,203.3 0,324.7 109.9,324.7 109.9,311.4 16.9,311.4 	"/>
</g>
</svg>
